<svg width="30px" height="30px" viewBox="0 0 30 30" version="1.1" xmlns="http://www.w3.org/2000/svg" xmlns:xlink="http://www.w3.org/1999/xlink">
    <!-- Generator: Sketch 43.2 (39069) - http://www.bohemiancoding.com/sketch -->
    <desc>Created with Sketch.</desc>
    <defs></defs>
    <g id="Page-1" stroke="none" stroke-width="1" fill="none" fill-rule="evenodd">
        <g id="Comment" fill="#1C1C1C">
            <path d="M2.25,3.5 C1.8375,3.5 1.5,3.8375 1.5,4.25 L1.5,22.2515 C1.5,22.664 1.8375,23 2.25,23 L10.875,23 C11.5815,23 12.2535,23.3375 12.675,23.9015 L14.4015,26.1995 C14.685,26.582 15.315,26.582 15.5985,26.201 L17.325,23.9 C17.7465,23.3375 18.4185,23 19.125,23 L27.75,23 C28.1625,23 28.5,22.664 28.5,22.2515 L28.5,4.25 C28.5,3.8375 28.1625,3.5 27.75,3.5 L2.25,3.5 Z M15,28.001 C14.2845,28.001 13.629,27.6725 13.2,27.0995 L11.4735,24.8015 C11.334,24.6125 11.109,24.5015 10.875,24.5015 L2.25,24.5015 C1.0095,24.5015 0,23.492 0,22.2515 L0,4.25 C0,3.0095 1.0095,2 2.25,2 L27.75,2 C28.9905,2 30,3.0095 30,4.25 L30,22.2515 C30,23.492 28.9905,24.5015 27.75,24.5015 L19.125,24.5015 C18.891,24.5015 18.666,24.6125 18.5265,24.8 L16.8,27.101 C16.371,27.6725 15.7155,28.001 15,28.001 L15,28.001 Z" id="Fill-6"></path>
        </g>
    </g>
</svg>