<svg width="30px" height="30px" viewBox="0 0 30 30" version="1.1"
    xmlns="http://www.w3.org/2000/svg"
    xmlns:xlink="http://www.w3.org/1999/xlink" fill="currentColor">
    <defs></defs>
    <path d="M27.5,29.1666667 L2.5,29.1666667 C1.12166667,29.1666667 0,28.045 0,26.6666667 L0,20 L1.66666667,20 L1.66666667,26.6666667 C1.66666667,27.1266667 2.04,27.5 2.5,27.5 L27.5,27.5 C27.96,27.5 28.3333333,27.1266667 28.3333333,26.6666667 L28.3333333,20 L30,20 L30,26.6666667 C30,28.045 28.8783333,29.1666667 27.5,29.1666667"></path>
    <g id="arrow" transform="translate(9.000000, 0.000000)">
        <polygon points="5.16666667 20 6.83333333 20 6.83333333 0 5.16666667 0"></polygon>
        <polyline points="6 21.1783333 0.41 15.59 1.59 14.41 6 18.8216667 10.41 14.41 11.59 15.59 6 21.1783333"></polyline>
    </g>
</svg>