<svg width="30px" height="30px" viewBox="0 0 30 30" version="1.1"
    xmlns="http://www.w3.org/2000/svg"
    xmlns:xlink="http://www.w3.org/1999/xlink">
    <!-- Generator: Sketch 43.2 (39069) - http://www.bohemiancoding.com/sketch -->
    <desc>Created with Sketch.</desc>
    <defs></defs>
    <g id="Page-1" stroke="none" stroke-width="1" fill="none" fill-rule="evenodd">
        <g id="Heart" fill="#1C1C1C">
            <path d="M8.04600251,2.50102719 C7.46250272,2.50102719 6.88800293,2.58502716 6.33750313,2.7560271 C2.72400443,3.86902669 1.75050478,8.31802509 1.65150482,8.82202491 C0.541505216,14.5055229 5.53050342,21.1700205 14.6730001,26.2160186 L15,26.3945186 L15.3269999,26.2160186 C24.4679966,21.1700205 29.4584948,14.5055229 28.3469952,8.82052491 C28.2479952,8.31202509 27.2744956,3.86752669 23.6639969,2.7560271 C21.0584978,1.95202739 17.9489989,3.09952697 15.5579998,5.76502601 L15,6.38752579 L14.4420002,5.76502601 C12.5550009,3.66202677 10.2255017,2.50102719 8.04600251,2.50102719 Z M15,28.1075179 L13.9500004,27.5285182 C4.21650389,22.1570201 -1.06049421,14.8790227 0.178505347,8.53252501 C0.295505305,7.93852523 1.45050489,2.69152712 5.89350329,1.32352761 C8.86050221,0.398027946 12.288001,1.49152755 15,4.17652658 C17.710499,1.49302755 21.1319978,0.404027944 24.1079967,1.32352761 C28.5494951,2.69152712 29.7044947,7.93852523 29.8199947,8.53252501 L29.8214947,8.53252501 C31.0604942,14.8790227 25.7834961,22.1570201 16.0499996,27.5285182 L15,28.1075179 L15,28.1075179 Z" id="Heart-outline"></path>
        </g>
    </g>
</svg>