<?xml version="1.0" encoding="utf-8"?>
<!-- Generator: Adobe Illustrator 24.2.3, SVG Export Plug-In . SVG Version: 6.00 Build 0)  -->
<svg version="1.1" id="Layer_1" xmlns="http://www.w3.org/2000/svg" xmlns:xlink="http://www.w3.org/1999/xlink" x="0px" y="0px"
	 viewBox="0 0 113 26" style="enable-background:new 0 0 113 26;" xml:space="preserve">
<style type="text/css">
	.st0{enable-background:new    ;}
</style>
<desc>Created with Sketch.</desc>
<g id="Hyttebok">
	<g id="iPhone-7" transform="translate(-132.000000, -52.000000)">
		<g id="Header">
			<g class="st0">
				<path d="M141.4,73c-4.2,0-9.2-3.3-9.2-8c0-2.2-0.1-5.1,3.3-6.9c0.2-0.1,0.4-0.2,0.7-0.2c0.2,0,0.2,0.1,0.2,0.3
					c0,0.7-0.8,1.2-0.8,5.8c0,4.1,2.7,7.8,7,7.8c3.8,0,8.2-2.8,8.2-9.4c0-4.2-3.4-6.4-5.6-7c-1.2-0.3-2.4-0.5-2.4-0.7
					c0-0.4,1.1-1.1,1.6-1.5c0.5-0.3,0.8-0.5,1.2-0.5c2.2,0,8.5,2.1,8.5,8.6C154,66.4,149.5,73,141.4,73z M139.5,66
					c-0.9,0.7-1.6,1.2-1.6,0.5l-0.1-9.4c0-0.3,0.4-0.6,1.2-1c0.7-0.4,1.3-0.6,1.6-0.6c0.3,0,0.4,0.2,0.4,0.5l0,8.1
					C141.1,64.9,140.1,65.6,139.5,66z"/>
				<path d="M165,61.9l-1.2,1.9c-0.1,0.2-0.3,0.2-0.4,0.2c-0.2,0-0.4-0.1-0.5-0.3l-1.2-1.7c-0.1-0.1-0.2-0.2-0.4-0.2
					c-0.3,0-0.5,0.2-0.5,0.5v7c0,0.6,0.3,1.3,0.9,1.3c0,0,0.2,0,0.3-0.1l0.7-0.4c0.1-0.1,0.2-0.1,0.3-0.1c0.2,0,0.3,0.2,0.3,0.4
					c0,0.1,0,0.2-0.2,0.3l-3.2,2.1c-0.2,0.1-0.3,0.2-0.5,0.2c-0.3,0-0.7-0.4-1.4-0.8c-0.7-0.4-1.4-0.7-1.6-0.8
					c-0.1-0.1-0.3-0.2-0.3-0.4c0-0.6,1.2,0.1,1.2-1.5v-6.5c0-0.1-0.2-1.1-0.6-1.3c-0.2-0.1-0.4-0.2-0.7-0.2h-0.3
					c-0.2,0-0.4-0.1-0.5-0.3l2.5-2.6c0.1-0.2,0.4-0.1,0.5-0.1c0.1,0,0.3,0.1,0.5,0.3l1.3,1.3c0.2,0.2,0.4,0.3,0.6,0.3
					c0.2,0,0.4-0.1,0.5-0.3l0.8-1.1c0.3-0.4,0.4-0.6,0.8-0.6c0.2,0,0.4,0.1,0.5,0.3l1.7,2.2c0.1,0.2,0.2,0.2,0.2,0.4
					C165.3,61.6,165.2,61.8,165,61.9z"/>
				<path d="M174.6,63.6l-2.2,3.1c-0.2,0.3-0.4,0.4-0.5,0.5c-0.1,0-0.1,0.1-0.1,0.1s-0.2-0.2-0.2-0.4c0-0.1,0-0.1,0.1-0.2
					c0.1-0.1,0.1-0.3,0.2-0.4l0.5-0.7c0.2-0.2,0.4-0.5,0.4-0.9c0-0.3-0.3-0.6-0.4-0.7l-1.3-1.3c-0.1-0.1-0.2-0.2-0.3-0.2
					c-0.1,0-0.4,0.1-0.4,1.2v5.6c0,0.8,0.5,1,1.2,1.4c0.3,0.2,0.7,0.3,0.9,0.3c0.2,0,0.3-0.1,0.4-0.1L174,70
					c0.2-0.2,0.3-0.2,0.4-0.2c0.1,0,0.3,0.2,0.3,0.4c0,0.1-0.1,0.1-0.2,0.2l-2.9,2c-0.5,0.3-0.7,0.4-0.8,0.4c-0.1,0-0.3-0.1-0.5-0.2
					c-1.1-0.6-2.5-1.2-3.3-1.3c-0.2,0-0.8-0.1-0.8-0.2c0-0.3,0.6-0.8,0.8-1.5c0.1-0.4,0.1-0.8,0.1-1.1l0.2-7.9
					c0-0.2,0.1-0.3,0.2-0.4l2.5-1.4c0.2-0.1,0.5-0.4,0.8-0.4c0.1,0,0.2,0.1,0.4,0.2l3,2.8c0.2,0.2,0.7,0.7,0.7,1.1
					C174.9,63,174.8,63.3,174.6,63.6z"/>
				<path d="M187.4,70.1c0,0.1-0.3,0.2-0.7,0.4c-0.6,0.2-1.8,0.9-2.8,1.9c-0.4,0.4-0.7,0.6-0.9,0.6c-0.1,0-0.3-0.1-0.8-0.3
					c-0.3-0.2-1.3-0.9-4.9-0.9c-0.2,0-0.4,0-0.4-0.1c0-0.4,0.9-2.5,3.4-2.5c0.4,0,1-0.2,3,0.8c0.1,0,0.1,0.1,0.2,0.1
					c0.2,0,0.4-0.2,0.4-0.4v-1.7c0,0,0.1-0.5-0.3-0.7l-1.2-0.8c-0.2-0.1-0.2-0.3-0.5-0.3c-0.3,0-0.5,0.2-0.7,0.5l-0.4,0.5
					c-0.1,0.1-0.3,0.3-0.5,0.3c-0.1,0-0.3,0-0.5-0.1l-2.4-1.4c-0.1-0.1-0.5-0.2-0.5-1v-2.9c0-0.3,0-0.5,0.1-0.6
					c0-0.1,0.3-0.2,0.7-0.4c0.8-0.3,1.9-1.1,2.8-1.9c0.4-0.4,0.7-0.6,0.9-0.6c0.3,0,1.9,1.2,4.3,1.2h1.4c0.9,0-1,2.8-3.1,2.8
					c-0.5,0-1,0.2-3-0.8c-0.1,0-0.1-0.1-0.2-0.1c-0.2,0-0.4,0.2-0.4,0.4v1.7c0,0-0.1,0.5,0.3,0.7l1.1,0.7c0.4,0.2,0.8-0.1,1-0.4
					l0.3-0.5c0.1-0.2,0.4-0.3,0.6-0.3c0.1,0,0.5,0.4,0.8,0.5l2.4,1.4c0.1,0.1,0.6,0.2,0.6,1v2.9C187.4,69.8,187.4,70,187.4,70.1z"/>
				<path d="M196.5,59.5c-0.3,0-0.5,0.1-0.8,0.2c-0.2,0.1-0.4,0.3-0.6,0.4c-0.2,0.1-0.3,0.2-0.4,0.4c-0.1,0.2-0.3,0.4-0.4,0.8
					l-1.5,7.3c-0.1,0.4-0.1,0.7,0.1,0.8l1,0.5c0.1,0.1,0.3,0.1,0.4,0.1c0.1,0,0.2,0,0.3-0.1l0.7-0.5c0.2-0.1,0.4-0.4,0.6-0.1
					l0.2,0.3c0.1,0.2,0,0.3-0.2,0.5l-3.2,2.8c-0.1,0.1-0.2,0.1-0.3,0.1c-0.2,0-0.2-0.1-0.3-0.1l-2.2-1.1c-0.2-0.1-0.2-0.2-0.2-0.4
					c0-0.2,0.1-0.3,0.2-0.4l0.3-0.2c0.2-0.1,0.7-0.4,0.7-1.4v-9.2c0-0.2-0.1-0.3-0.3-0.3h-0.9c-0.2,0-0.3-0.1-0.3-0.3
					c0-0.1,0-0.1,0.1-0.2l3.5-4.6c0.1-0.1,0.2-0.1,0.3-0.1c0.2,0,0.4,0.2,0.4,0.4v2.2c0,0.8,0.7,1.5,1.5,1.5h1.5
					c0.5,0,0.6,0,0.6,0.1C197.1,59.3,196.9,59.5,196.5,59.5z"/>
				<path d="M211.1,71l-3.1,1.9c-0.3,0.2-0.6,0.1-0.7,0l-1.8-2.2l-3.5,2.1l-0.3,0.2c-0.2,0-0.7-0.1-1.4-0.4c-0.7-0.2-1-0.4-1.3-0.4
					c-0.3-0.1-0.4-0.2-0.4-0.4c0-0.1,0.1-0.1,0.1-0.2c0.2-0.3,0.4-1.3,0.4-1.6v-7.6c0-1.8-0.1-2.1-0.7-1.8l-0.2,0.1
					c-0.1,0-0.2,0.1-0.4,0.1c-0.1,0-0.3-0.4-0.1-0.6l2.7-1.4c0.2-0.1,0.2-0.1,0.4-0.1c0.1,0,0.2,0.1,0.2,0.1l2.1,1
					c0.1,0.1,0.2,0.2,0.2,0.4c0,0.1-0.1,0.2-0.2,0.4l-0.1,0.1c-0.1,0.1-0.4,0.5-0.4,1.4v7.5c0,0.5,0.4,0.9,1,0.9
					c0.2,0,0.5-0.1,0.6-0.2l0.9-0.5c0.3-0.2,0.4-0.5,0.4-0.8v-7c0-0.3,0-0.8-0.5-1.3l-0.2-0.2c-0.1-0.1-0.1-0.2-0.1-0.4
					c0-0.1,0.1-0.3,0.3-0.4l1.8-0.9c0.2-0.1,0.3-0.1,0.4-0.1s0.3,0.1,0.4,0.1l1.8,0.9c0.2,0.1,0.3,0.2,0.3,0.4c0,0.2,0,0.3-0.1,0.4
					l-0.2,0.2c-0.5,0.5-0.4,1-0.4,1.4v7.4c0,0.6,0.5,1.1,1.1,1.1c0.2,0,0.5-0.1,0.7-0.2c0.1-0.1,0.3-0.2,0.3-0.2
					c0.1,0,0.1,0.1,0.2,0.1c0.1,0.1,0.1,0.1,0.1,0.2C211.4,70.8,211.3,70.9,211.1,71z"/>
				<path d="M223.5,69.5c0,0.3-0.2,0.6-0.6,0.8c-0.4,0.2-0.9,0.7-1.6,1.4c-0.3,0.3-1.4,1.7-1.6,1.3c-0.5-0.7-0.9-1-1.1-1
					c-0.7,0-1.2,1.1-1.2,2.6c0,0.9,0.8,1.1,1.3,1.5l0.9,0.5c0.4,0.3,0.5,0.6,0.4,0.7l-0.1,0.2c-0.2,0.3-1.5-0.9-3.4-0.9
					c-0.3,0-0.8-0.2-2.9,0.7c-0.2,0.1-0.3-0.3-0.3-0.5c0-0.2,0.1-0.3,0.2-0.4L214,76c0.2-0.1,0.3-0.4,0.3-0.9v-4.1
					c0-0.4-0.2-0.5-0.7-0.5h-1.5c-0.4,0-0.6-0.3-0.6-0.6c0-0.4,0.3-0.6,0.6-0.6h1.2c0.3,0,0.5-0.1,0.6-0.4c0.1-0.3,0.3-0.6,0.3-0.9
					v-5.1c0-0.4-0.2-0.7-0.7-1.1l-0.2-0.1c-0.1-0.1-0.3-0.2-0.4-0.2c-0.1,0-0.2,0-0.3,0.1l-0.3,0.2c-0.1,0.1-0.2,0.1-0.3,0.1
					c-0.3,0-0.5-0.2-0.5-0.5c0-0.1,0-0.3,0.1-0.3l2.2-1.5c0.2-0.1,0.6-0.5,0.9-0.5c0.4,0,0.7,0.4,0.9,0.6l1.2,1.1
					c0.3,0.3,0.5,0.4,0.7,0.4c0.2,0,0.4-0.2,0.8-0.5l1.7-1.3c0.4-0.3,0.8-0.3,1-0.3c0.9,0,3,1.6,2.9,3.5L223.5,69.5z M220.7,61.5
					c0-0.2-0.1-0.9-1-0.5l-1.5,0.7c-0.3,0.1-0.4,0.5-0.4,0.8v6.3c0,0.6,0.3,1,0.8,1.1l1.2,0.3c0.5,0.1,0.8-0.2,0.8-0.8V61.5z"/>
				<path d="M234.9,63.6l-2.2,3.1c-0.2,0.3-0.4,0.4-0.5,0.5c-0.1,0-0.1,0.1-0.2,0.1c0,0-0.2-0.2-0.2-0.4c0-0.1,0-0.1,0.1-0.2
					c0.1-0.1,0.1-0.3,0.2-0.4l0.5-0.7c0.2-0.2,0.4-0.5,0.4-0.9c0-0.3-0.3-0.6-0.4-0.7l-1.3-1.3c-0.1-0.1-0.2-0.2-0.3-0.2
					c-0.1,0-0.4,0.1-0.4,1.2v5.6c0,0.8,0.5,1,1.2,1.4c0.3,0.2,0.7,0.3,0.9,0.3c0.2,0,0.3-0.1,0.4-0.1l1.2-0.8
					c0.2-0.2,0.3-0.2,0.4-0.2c0.1,0,0.3,0.2,0.3,0.4c0,0.1-0.1,0.1-0.2,0.2l-2.9,2c-0.5,0.3-0.7,0.4-0.8,0.4c-0.2,0-0.3-0.1-0.5-0.2
					c-1.1-0.6-2.5-1.2-3.3-1.3c-0.2,0-0.8-0.1-0.8-0.2c0-0.3,0.6-0.8,0.8-1.5c0.1-0.4,0.1-0.8,0.1-1.1l0.2-7.9
					c0-0.2,0.1-0.3,0.2-0.4l2.5-1.4c0.2-0.1,0.5-0.4,0.8-0.4c0.1,0,0.2,0.1,0.4,0.2l3,2.8c0.2,0.2,0.7,0.7,0.7,1.1
					C235.3,63,235.2,63.3,234.9,63.6z"/>
				<path d="M243.9,59.5c-0.3,0-0.5,0.1-0.8,0.2c-0.2,0.1-0.5,0.3-0.6,0.4c-0.2,0.1-0.3,0.2-0.4,0.4c-0.1,0.2-0.3,0.4-0.4,0.8
					l-1.5,7.3c-0.1,0.4-0.2,0.7,0.1,0.8l1,0.5c0.2,0.1,0.3,0.1,0.4,0.1c0.1,0,0.1,0,0.3-0.1l0.7-0.5c0.2-0.1,0.4-0.4,0.6-0.1
					l0.2,0.3c0.1,0.2,0,0.3-0.2,0.5l-3.2,2.8c-0.1,0.1-0.2,0.1-0.3,0.1c-0.1,0-0.2-0.1-0.3-0.1l-2.2-1.1c-0.2-0.1-0.2-0.2-0.2-0.4
					c0-0.2,0.1-0.3,0.2-0.4l0.3-0.2c0.2-0.1,0.7-0.4,0.7-1.4v-9.2c0-0.2-0.1-0.3-0.3-0.3H237c-0.2,0-0.3-0.1-0.3-0.3
					c0-0.1,0-0.1,0.1-0.2l3.4-4.6c0.1-0.1,0.2-0.1,0.3-0.1c0.2,0,0.4,0.2,0.4,0.4v2.2c0,0.8,0.7,1.5,1.5,1.5h1.5
					c0.5,0,0.6,0,0.6,0.1C244.5,59.3,244.3,59.5,243.9,59.5z"/>
			</g>
		</g>
	</g>
</g>
</svg>
